<mxfile host="app.diagrams.net" agent="Mozilla/5.0 (Windows NT 10.0; Win64; x64) AppleWebKit/537.36 (KHTML, like Gecko) Chrome/128.0.0.0 Safari/537.36" version="24.7.10">
  <diagram name="Page-1" id="i60v-xZ4EJVohCIK4sv4">
    <mxGraphModel dx="1050" dy="596" grid="1" gridSize="10" guides="1" tooltips="1" connect="1" arrows="1" fold="1" page="1" pageScale="1" pageWidth="827" pageHeight="1169" math="0" shadow="0">
      <root>
        <mxCell id="0" />
        <mxCell id="1" parent="0" />
        <mxCell id="wXsoQjjW68TFAJlxEAEx-1" value="Actor" style="shape=umlActor;verticalLabelPosition=bottom;verticalAlign=top;html=1;outlineConnect=0;" vertex="1" parent="1">
          <mxGeometry x="280" y="80" width="30" height="60" as="geometry" />
        </mxCell>
        <mxCell id="wXsoQjjW68TFAJlxEAEx-2" value="" style="rounded=0;whiteSpace=wrap;html=1;" vertex="1" parent="1">
          <mxGeometry x="403" y="60" width="200" height="140" as="geometry" />
        </mxCell>
        <mxCell id="wXsoQjjW68TFAJlxEAEx-3" value="navigateur internet" style="rounded=0;whiteSpace=wrap;html=1;" vertex="1" parent="1">
          <mxGeometry x="403" y="60" width="200" height="20" as="geometry" />
        </mxCell>
        <mxCell id="wXsoQjjW68TFAJlxEAEx-4" value="" style="rounded=0;whiteSpace=wrap;html=1;" vertex="1" parent="1">
          <mxGeometry x="414" y="250" width="236" height="110" as="geometry" />
        </mxCell>
        <mxCell id="wXsoQjjW68TFAJlxEAEx-5" value="Serveur web apach" style="rounded=0;whiteSpace=wrap;html=1;" vertex="1" parent="1">
          <mxGeometry x="410" y="250" width="240" height="30" as="geometry" />
        </mxCell>
        <mxCell id="wXsoQjjW68TFAJlxEAEx-6" value="" style="rounded=0;whiteSpace=wrap;html=1;" vertex="1" parent="1">
          <mxGeometry x="40" y="250" width="250" height="140" as="geometry" />
        </mxCell>
        <mxCell id="wXsoQjjW68TFAJlxEAEx-7" value="Serveur base de donnÃ©" style="rounded=0;whiteSpace=wrap;html=1;" vertex="1" parent="1">
          <mxGeometry x="40" y="250" width="250" height="30" as="geometry" />
        </mxCell>
        <mxCell id="wXsoQjjW68TFAJlxEAEx-8" value="" style="endArrow=none;html=1;rounded=0;exitX=1;exitY=0.5;exitDx=0;exitDy=0;" edge="1" parent="1" source="wXsoQjjW68TFAJlxEAEx-6">
          <mxGeometry width="50" height="50" relative="1" as="geometry">
            <mxPoint x="390" y="330" as="sourcePoint" />
            <mxPoint x="410" y="320" as="targetPoint" />
          </mxGeometry>
        </mxCell>
        <mxCell id="wXsoQjjW68TFAJlxEAEx-10" value="Serveur ftp" style="rounded=1;whiteSpace=wrap;html=1;arcSize=50;" vertex="1" parent="1">
          <mxGeometry x="300" y="320" width="96" height="30" as="geometry" />
        </mxCell>
      </root>
    </mxGraphModel>
  </diagram>
</mxfile>
